<svg width="30" height="30" viewBox="0 0 30 30" fill="none" xmlns="http://www.w3.org/2000/svg">
<g id="ico / 24 / arrows / chevron_down">
<path id="Icon color" d="M15.9001 19.7252C15.7244 19.9011 15.4861 20 15.2376 20.0002H14.7626C14.5145 19.9973 14.2772 19.8988 14.1001 19.7252L7.68756 13.3002C7.56924 13.1829 7.50269 13.0231 7.50269 12.8565C7.50269 12.6898 7.56924 12.5301 7.68756 12.4127L8.57506 11.5252C8.69026 11.4076 8.84795 11.3414 9.01256 11.3414C9.17717 11.3414 9.33485 11.4076 9.45006 11.5252L15.0001 17.0877L20.5501 11.5252C20.6674 11.4069 20.8272 11.3403 20.9938 11.3403C21.1605 11.3403 21.3202 11.4069 21.4376 11.5252L22.3126 12.4127C22.4309 12.5301 22.4974 12.6898 22.4974 12.8565C22.4974 13.0231 22.4309 13.1829 22.3126 13.3002L15.9001 19.7252Z" fill="black"/>
</g>
</svg>
