<svg width="21" height="20" viewBox="0 0 21 20" fill="none" xmlns="http://www.w3.org/2000/svg">
<g id="Link &#226;&#134;&#146; SVG" clip-path="url(#clip0_11_180)">
<path id="4Pinterest.svg" fill-rule="evenodd" clip-rule="evenodd" d="M10.9545 0C5.22446 0 2.32946 3.9125 2.32946 7.17625C2.24025 8.07278 2.42952 8.97502 2.8715 9.76011C3.31348 10.5452 3.98669 11.175 4.79946 11.5638C4.85696 11.5937 4.92062 11.6099 4.98543 11.6111C5.05025 11.6122 5.11445 11.5983 5.17298 11.5705C5.23151 11.5426 5.28277 11.5015 5.32272 11.4504C5.36268 11.3994 5.39023 11.3398 5.40321 11.2762C5.45946 11.0737 5.59071 10.5662 5.65321 10.3538C5.69977 10.243 5.70796 10.1198 5.67648 10.0038C5.645 9.88788 5.57565 9.78577 5.47946 9.71375C4.93563 9.09351 4.651 8.28797 4.68446 7.46375C4.69412 6.70676 4.85764 5.95964 5.16508 5.26783C5.47252 4.57601 5.91747 3.95396 6.47285 3.4395C7.02824 2.92504 7.68247 2.52891 8.39574 2.27521C9.10902 2.02152 9.86645 1.91555 10.622 1.96375C13.862 1.96375 15.6407 3.8475 15.6407 6.365C15.6407 9.67625 14.102 12.4713 11.817 12.4713C11.5332 12.4947 11.248 12.4506 10.9846 12.3426C10.7211 12.2347 10.487 12.0659 10.3013 11.8501C10.1157 11.6343 9.98368 11.3776 9.91622 11.101C9.84877 10.8244 9.84773 10.5358 9.91321 10.2587C10.3885 8.93474 10.7449 7.57102 10.9782 6.18375C11.0008 5.96018 10.9751 5.73436 10.9028 5.5216C10.8305 5.30883 10.7134 5.11407 10.5593 4.9505C10.4052 4.78694 10.2178 4.65839 10.0097 4.57355C9.80161 4.48871 9.57774 4.44956 9.35321 4.45875C9.00516 4.50115 8.66887 4.61171 8.36357 4.78413C8.05826 4.95654 7.78993 5.18743 7.57389 5.4636C7.35786 5.73977 7.19836 6.0558 7.10452 6.39363C7.01067 6.73146 6.98432 7.08448 7.02696 7.4325C7.0195 8.0592 7.15054 8.67981 7.41071 9.25L5.85946 15.5075C5.58774 16.9488 5.57546 18.4269 5.82321 19.8725C5.83002 19.9026 5.84516 19.9301 5.86691 19.9519C5.88866 19.9738 5.91612 19.989 5.94616 19.9959C5.97619 20.0028 6.00756 20.0012 6.03667 19.991C6.06578 19.9809 6.09144 19.9628 6.11071 19.9388C7.0569 18.8271 7.79456 17.5538 8.28821 16.18C8.43571 15.6688 9.13571 13.0225 9.13571 13.0225C9.47337 13.4828 9.91815 13.8538 10.4315 14.1034C10.9449 14.353 11.5114 14.4737 12.082 14.455C15.957 14.455 18.5907 11.0887 18.5907 6.58C18.5882 3.17625 15.557 0 10.9545 0Z" fill="white"/>
</g>
<defs>
<clipPath id="clip0_11_180">
<rect width="20" height="20" fill="white" transform="translate(0.454468)"/>
</clipPath>
</defs>
</svg>
