<svg width="21" height="20" viewBox="0 0 21 20" fill="none" xmlns="http://www.w3.org/2000/svg">
<g id="Link &#226;&#134;&#146; SVG" clip-path="url(#clip0_11_177)">
<path id="4Skype.svg" fill-rule="evenodd" clip-rule="evenodd" d="M19.737 11.6433C19.9979 10.1567 19.8967 8.62916 19.4421 7.18998C18.9874 5.7508 18.1927 4.44236 17.1251 3.37543C16.0576 2.30851 14.7487 1.51453 13.3093 1.0607C11.8698 0.606873 10.3422 0.506567 8.8558 0.768276C7.78459 0.148513 6.53822 -0.0988632 5.31152 0.0648169C4.08482 0.228497 2.94692 0.794008 2.07568 1.67295C1.20445 2.5519 0.648991 3.69474 0.496128 4.92284C0.343266 6.15094 0.601617 7.39507 1.2308 8.46078C1.14664 8.97481 1.10483 9.49489 1.1058 10.0158C1.10634 11.3835 1.40566 12.7345 1.98281 13.9745C2.55996 15.2144 3.40102 16.3134 4.44716 17.1944C5.4933 18.0754 6.71927 18.7172 8.03934 19.075C9.3594 19.4328 10.7417 19.4979 12.0895 19.2658C13.1545 19.8741 14.3898 20.1158 15.6055 19.9539C16.8212 19.792 17.9501 19.2354 18.8188 18.3696C19.6875 17.5037 20.2478 16.3766 20.4137 15.1615C20.5796 13.9463 20.3418 12.7102 19.737 11.6433ZM6.7108 11.9683C7.6458 11.9183 7.9608 13.0308 8.65205 13.5108C9.4233 14.032 11.8445 14.5883 12.5545 12.9695C13.0795 11.572 11.537 11.3595 10.017 10.9845C7.6908 10.4845 5.7433 9.88703 5.75955 7.50828C5.74955 5.21578 7.5633 4.27203 9.30955 4.11453C10.1385 3.98443 10.985 4.02136 11.7994 4.22315C12.6139 4.42493 13.3798 4.78749 14.052 5.28953C15.3758 6.41453 14.662 7.65328 13.7158 7.67953C12.3758 7.71703 12.3933 5.92953 10.1833 5.96203C8.27205 5.93203 7.39705 7.77328 9.3933 8.41703C12.1933 9.15703 14.437 9.06703 15.1608 11.4283C15.717 13.637 14.3795 15.697 11.1158 15.9608C10.2484 16.0928 9.36252 16.0285 8.52333 15.7726C7.68414 15.5166 6.9131 15.0756 6.26705 14.482C5.18955 13.257 5.69705 12.022 6.7108 11.9683Z" fill="white"/>
</g>
<defs>
<clipPath id="clip0_11_177">
<rect width="20" height="20" fill="white" transform="translate(0.454468)"/>
</clipPath>
</defs>
</svg>
