<svg width="26" height="25" viewBox="0 0 26 25" fill="none" xmlns="http://www.w3.org/2000/svg">
<g id="SVG" clip-path="url(#clip0_11_151)">
<path id="Vector" d="M25.7939 17.8518L13.8145 6.39332C13.7174 6.3007 13.5885 6.24902 13.4543 6.24902C13.3202 6.24902 13.1912 6.3007 13.0942 6.39332L1.11523 17.8518C1.02712 17.9495 0.979218 18.0769 0.981134 18.2084C0.983051 18.3399 1.03465 18.4658 1.12557 18.5609C1.21648 18.656 1.33999 18.7131 1.4713 18.7209C1.60261 18.7287 1.732 18.6865 1.83349 18.6028L13.4546 7.49049L25.0757 18.6028C25.1759 18.6965 25.3089 18.7469 25.4461 18.7431C25.5832 18.7393 25.7133 18.6816 25.8081 18.5824C25.9029 18.4833 25.9548 18.3508 25.9525 18.2137C25.9502 18.0765 25.894 17.9458 25.7959 17.8499L25.7939 17.8518Z" fill="white"/>
</g>
<defs>
<clipPath id="clip0_11_151">
<rect width="25" height="25" fill="white" transform="translate(0.954468)"/>
</clipPath>
</defs>
</svg>
