<svg width="21" height="20" viewBox="0 0 21 20" fill="none" xmlns="http://www.w3.org/2000/svg">
<g id="Link &#226;&#134;&#146; SVG" clip-path="url(#clip0_11_174)">
<path id="4Twitter.svg" fill-rule="evenodd" clip-rule="evenodd" d="M20.4627 3.70722C19.7161 4.04362 18.9227 4.26458 18.1097 4.36252C18.9698 3.83927 19.6107 3.02155 19.9133 2.06134C19.1099 2.5458 18.2286 2.88732 17.3086 3.07075C16.9271 2.65681 16.464 2.32642 15.9485 2.10044C15.4329 1.87446 14.8762 1.7578 14.3133 1.75781C13.7708 1.76151 13.2344 1.87201 12.7347 2.08301C12.235 2.29402 11.7817 2.60139 11.4007 2.98757C11.0198 3.37376 10.7187 3.83119 10.5145 4.33376C10.3104 4.83634 10.2072 5.3742 10.2109 5.91664C10.2106 6.23529 10.2461 6.55298 10.3168 6.8637C8.68042 6.77826 7.08074 6.34687 5.62329 5.59796C4.16583 4.84906 2.88372 3.79966 1.8615 2.51899C1.33724 3.4347 1.17675 4.51416 1.41195 5.54279C1.64714 6.57141 2.26079 7.47387 3.13091 8.07075C2.47874 8.05034 1.84126 7.8719 1.27327 7.55075V7.60252C1.26884 8.55757 1.59419 9.48489 2.19436 10.2278C2.79453 10.9707 3.63274 11.4837 4.56738 11.6802C3.96389 11.8464 3.33017 11.8709 2.71562 11.7519C2.97255 12.5732 3.48032 13.2933 4.16759 13.8112C4.85487 14.329 5.68711 14.6185 6.54738 14.639C5.69959 15.3143 4.72601 15.8143 3.68325 16.11C2.64048 16.4057 1.54934 16.4911 0.473267 16.3613C2.34094 17.582 4.52327 18.2331 6.75444 18.2355C8.30059 18.2348 9.83121 17.9272 11.2575 17.3304C12.6839 16.7336 13.9775 15.8595 15.0633 14.7588C16.1492 13.6582 17.0057 12.3529 17.5832 10.9186C18.1607 9.48435 18.4476 7.94971 18.4274 6.4037C18.4274 6.2237 18.4274 6.04487 18.4156 5.86605C19.2209 5.27384 19.9141 4.54279 20.4627 3.70722Z" fill="white"/>
</g>
<defs>
<clipPath id="clip0_11_174">
<rect width="20" height="20" fill="white" transform="translate(0.454468)"/>
</clipPath>
</defs>
</svg>
