<svg width="21" height="20" viewBox="0 0 21 20" fill="none" xmlns="http://www.w3.org/2000/svg">
<g id="Link &#226;&#134;&#146; SVG" clip-path="url(#clip0_11_171)">
<path id="4Vk.svg" fill-rule="evenodd" clip-rule="evenodd" d="M10.0982 3.73763C9.25332 3.65249 8.4 3.7455 7.59332 4.01066C7.25016 4.19101 6.98715 4.5993 7.14746 4.61934C7.4982 4.65888 7.81913 4.83533 8.04044 5.11029C8.24895 5.57354 8.3504 6.07781 8.33727 6.58565C8.33727 6.58565 8.50885 9.40361 7.91895 9.75805C7.51317 9.99851 6.9596 9.50756 5.75852 7.26822C5.35176 6.48197 4.99291 5.67184 4.68394 4.84227C4.63037 4.70416 4.54447 4.5809 4.43345 4.48283C4.29503 4.38273 4.13717 4.31276 3.97005 4.27743L1.10575 4.29621C0.892459 4.30033 0.686977 4.37722 0.523375 4.51414C0.484727 4.60057 0.463815 4.69387 0.461879 4.78853C0.459943 4.88318 0.477021 4.97727 0.512103 5.0652C0.512103 5.0652 2.75269 10.755 5.29136 13.6218C5.89083 14.3679 6.64582 14.9743 7.50369 15.3987C8.36156 15.8231 9.30168 16.0553 10.2585 16.079H11.4583C11.6609 16.0545 11.8506 15.9668 12.0006 15.8286C12.1129 15.6591 12.171 15.4595 12.1672 15.2562C12.1672 15.2562 12.1434 13.5141 12.8873 13.2523C13.6313 12.9906 14.5618 14.9393 15.5625 15.6833C15.7443 15.8431 15.9564 15.9645 16.1863 16.0403C16.4162 16.116 16.6589 16.1446 16.9001 16.1241L19.5753 16.0803C19.7314 16.0959 19.8888 16.0657 20.0281 15.9936C20.1675 15.9215 20.2829 15.8104 20.3604 15.6739C20.4378 15.5375 20.474 15.3814 20.4645 15.2248C20.4549 15.0681 20.4001 14.9176 20.3067 14.7915C19.7913 13.8537 19.121 13.0097 18.3241 12.2955C16.6421 10.6084 16.8663 10.8815 18.889 7.95956C20.1176 6.17861 20.6098 5.09151 20.4557 4.62059C20.3237 4.47979 20.1572 4.37591 19.9727 4.31923C19.7881 4.26256 19.592 4.25506 19.4037 4.29747L16.3904 4.31625C16.2563 4.29995 16.1204 4.32624 16.0021 4.3914C15.8866 4.48555 15.7962 4.6069 15.7391 4.74458C15.4267 5.6192 15.0542 6.47121 14.6244 7.29452C13.2869 9.76306 12.7458 9.90082 12.5279 9.74552C12.0181 9.38608 12.1446 8.30523 12.1446 7.5425C12.1446 5.1416 12.4828 4.14843 11.4934 3.88792C11.0385 3.76801 10.5682 3.71735 10.0982 3.73763Z" fill="white"/>
</g>
<defs>
<clipPath id="clip0_11_171">
<rect width="20" height="20" fill="white" transform="translate(0.454468)"/>
</clipPath>
</defs>
</svg>
