<svg width="21" height="20" viewBox="0 0 21 20" fill="none" xmlns="http://www.w3.org/2000/svg">
<g id="Link &#226;&#134;&#146; SVG" clip-path="url(#clip0_11_168)">
<path id="4Youtube.svg" fill-rule="evenodd" clip-rule="evenodd" d="M20.112 5.34504C19.9963 4.83826 19.7263 4.37982 19.3393 4.03283C18.9522 3.68585 18.4671 3.46739 17.9507 3.40754C12.9657 3.04254 7.96072 3.04254 2.97573 3.40754C2.45924 3.46704 1.97395 3.68537 1.58683 4.03241C1.19971 4.37946 0.929847 4.8381 0.814479 5.34504C0.34781 8.43627 0.34781 11.5801 0.814479 14.6713C0.930185 15.1781 1.20015 15.6365 1.58721 15.9835C1.97426 16.3305 2.45937 16.5489 2.97573 16.6088C7.9612 16.9721 12.9665 16.9721 17.952 16.6088C18.4683 16.5489 18.9534 16.3305 19.3405 15.9835C19.7276 15.6365 19.9975 15.1781 20.1132 14.6713C20.577 11.5798 20.5766 8.4364 20.112 5.34504ZM8.36198 12.6963V7.22754L13.6482 9.96254L8.36198 12.6963Z" fill="white"/>
</g>
<defs>
<clipPath id="clip0_11_168">
<rect width="20" height="20" fill="white" transform="translate(0.454468)"/>
</clipPath>
</defs>
</svg>
